/* XPM */
static char * color_picker_xpm[] = {
"64 64 413 2",
"  	c None",
". 	c #5A5F61",
"+ 	c #5E6364",
"@ 	c #2E3436",
"# 	c #5F6466",
"$ 	c #3D4244",
"% 	c #4A4F51",
"& 	c #4D5254",
"* 	c #313739",
"= 	c #DBDCDC",
"- 	c #FFFFFF",
"; 	c #DDDEDF",
"> 	c #32383A",
", 	c #4C5152",
"' 	c #787D7E",
") 	c #8A8D8E",
"! 	c #898C8D",
"~ 	c #797D7F",
"{ 	c #EFF0F0",
"] 	c #F1F1F2",
"^ 	c #3E4446",
"/ 	c #3B4142",
"( 	c #696E6F",
"_ 	c #AAACAD",
": 	c #B8D5BE",
"< 	c #7898C2",
"[ 	c #B9BCD1",
"} 	c #A9ABAC",
"| 	c #6A6F70",
"1 	c #515658",
"2 	c #FCFCFC",
"3 	c #E7F7D8",
"4 	c #77D21E",
"5 	c #5480AC",
"6 	c #3465A4",
"7 	c #527AAF",
"8 	c #78567B",
"9 	c #E6DFE6",
"0 	c #FDFDFD",
"a 	c #54595A",
"b 	c #303638",
"c 	c #5B5F60",
"d 	c #C6C8C9",
"e 	c #99DE55",
"f 	c #73D216",
"g 	c #7EBF66",
"h 	c #7E789D",
"i 	c #755076",
"j 	c #987D99",
"k 	c #CACBCC",
"l 	c #585D5E",
"m 	c #7D8082",
"n 	c #727677",
"o 	c #D1F0B3",
"p 	c #6792A9",
"q 	c #6785B3",
"r 	c #D3C7D3",
"s 	c #717577",
"t 	c #7E8181",
"u 	c #484D4E",
"v 	c #343A3C",
"w 	c #E1E2E3",
"x 	c #FBFEF9",
"y 	c #87D837",
"z 	c #7BC942",
"A 	c #3A6AA7",
"B 	c #3969A6",
"C 	c #7C698D",
"D 	c #876788",
"E 	c #FBFAFB",
"F 	c #E4E5E5",
"G 	c #353A3C",
"H 	c #454A4D",
"I 	c #707476",
"J 	c #929596",
"K 	c #BCE990",
"L 	c #75A49A",
"M 	c #7587B0",
"N 	c #BEACBE",
"O 	c #919495",
"P 	c #717576",
"Q 	c #383E40",
"R 	c #414648",
"S 	c #F4F4F4",
"T 	c #F2FBEA",
"U 	c #7BD423",
"V 	c #76CF27",
"W 	c #4874AB",
"X 	c #4572AB",
"Y 	c #795B80",
"Z 	c #7B587C",
"` 	c #F1EDF1",
" .	c #F5F5F6",
"..	c #43494A",
"+.	c #373D3E",
"@.	c #626768",
"#.	c #B2B4B5",
"$.	c #A7E36C",
"%.	c #7CB481",
"&.	c #7D81A6",
"*.	c #A891A9",
"=.	c #B1B3B4",
"-.	c #636869",
";.	c #2F3537",
">.	c #FEFEFE",
",.	c #E3F6D0",
"'.	c #74D218",
").	c #74D118",
"!.	c #5A84AD",
"~.	c #577DB1",
"{.	c #755177",
"].	c #765177",
"^.	c #E1D9E1",
"/.	c #53595B",
"(.	c #CECFD0",
"_.	c #FEFFFE",
":.	c #93DC4C",
"<.	c #7DC25D",
"[.	c #3566A4",
"}.	c #7E749A",
"|.	c #937694",
"1.	c #D1D2D3",
"2.	c #525758",
"3.	c #787B7D",
"4.	c #7A7E7F",
"5.	c #CCEFAA",
"6.	c #6B97A7",
"7.	c #6C86B3",
"8.	c #CDC0CE",
"9.	c #777B7D",
"0.	c #43484A",
"a.	c #363C3E",
"b.	c #E6E7E7",
"c.	c #FAFDF6",
"d.	c #83D731",
"e.	c #7ACB3B",
"f.	c #3E6CA7",
"g.	c #3C6BA8",
"h.	c #7B6589",
"i.	c #846385",
"j.	c #F9F7F9",
"k.	c #E9EAEA",
"l.	c #383E3F",
"m.	c #6F7374",
"n.	c #9A9D9E",
"o.	c #B7E886",
"p.	c #77A895",
"q.	c #7886AE",
"r.	c #B8A5B9",
"s.	c #999C9D",
"t.	c #6F7375",
"u.	c #474C4E",
"v.	c #F7F7F7",
"w.	c #EFFAE4",
"x.	c #78D41F",
"y.	c #75CF21",
"z.	c #4C78AC",
"A.	c #4975AC",
"B.	c #77587C",
"C.	c #79557A",
"D.	c #EDE8ED",
"E.	c #F8F9F9",
"F.	c #494E50",
"G.	c #5F6465",
"H.	c #BBBDBE",
"I.	c #A1E162",
"J.	c #7DB878",
"K.	c #7E7DA3",
"L.	c #A28AA3",
"M.	c #BABCBD",
"N.	c #606566",
"O.	c #DEF4C8",
"P.	c #74D217",
"Q.	c #5E89AC",
"R.	c #5C7FB1",
"S.	c #765178",
"T.	c #DCD3DD",
"U.	c #4E5254",
"V.	c #D8DADA",
"W.	c #FEFFFD",
"X.	c #8FDB45",
"Y.	c #7DC553",
"Z.	c #3667A5",
"`.	c #3666A5",
" +	c #7E7095",
".+	c #8E708F",
"++	c #DCDDDD",
"@+	c #4B5153",
"#+	c #7A7D7F",
"$+	c #838788",
"%+	c #C6EDA0",
"&+	c #6F9CA3",
"*+	c #7087B2",
"=+	c #C7B8C8",
"-+	c #828687",
";+	c #3D4446",
">+	c #3B4143",
",+	c #EEEEEE",
"'+	c #F6FCF0",
")+	c #7FD629",
"!+	c #78CD2F",
"~+	c #4170A9",
"{+	c #406EA9",
"]+	c #795E84",
"^+	c #7F5C80",
"/+	c #F5F3F5",
"(+	c #F0F1F1",
"_+	c #6D7172",
":+	c #A3A6A7",
"<+	c #B0E67C",
"[+	c #7AAD8F",
"}+	c #7B84AC",
"|+	c #B29EB3",
"1+	c #A2A5A6",
"2+	c #6E7273",
"3+	c #4F5456",
"4+	c #FBFBFB",
"5+	c #E9F8DA",
"6+	c #76D31B",
"7+	c #74D21D",
"8+	c #527EAC",
"9+	c #5179AF",
"0+	c #77537A",
"a+	c #775378",
"b+	c #E8E1E8",
"c+	c #5D6163",
"d+	c #C3C5C5",
"e+	c #9BDF59",
"f+	c #7CBB6C",
"g+	c #7E799F",
"h+	c #9A7F9B",
"i+	c #5D6162",
"j+	c #C2C4C5",
"k+	c #FDEF82",
"l+	c #FCE94F",
"m+	c #FBCD5C",
"n+	c #F35C52",
"o+	c #EF2929",
"p+	c #F46868",
"q+	c #C2C3C4",
"r+	c #5D6264",
"s+	c #F9F9F9",
"t+	c #FFFCE6",
"u+	c #FCEA54",
"v+	c #FCE650",
"w+	c #F78D23",
"x+	c #F57E25",
"y+	c #EF2F2F",
"z+	c #EF2D2D",
"A+	c #FDDEDE",
"B+	c #4E5355",
"C+	c #FDF39D",
"D+	c #FABC57",
"E+	c #F57900",
"F+	c #F46E56",
"G+	c #F68989",
"H+	c #A2A4A5",
"I+	c #6D7274",
"J+	c #393F41",
"K+	c #EBECEC",
"L+	c #FFFEF5",
"M+	c #FCEB60",
"N+	c #FBE255",
"O+	c #F6810F",
"P+	c #F57B0F",
"Q+	c #F13C3B",
"R+	c #F03B3B",
"S+	c #FEF2F2",
"T+	c #FEF6B8",
"U+	c #F9AB4A",
"V+	c #F5794E",
"W+	c #F9A9A9",
"X+	c #828586",
"Y+	c #797E80",
"Z+	c #505657",
"`+	c #D5D6D7",
" @	c #FFFFFE",
".@	c #FDED72",
"+@	c #FBD75B",
"@@	c #F57B03",
"#@	c #F57902",
"$@	c #F24F4A",
"%@	c #F25151",
"&@	c #FFFCFC",
"*@	c #D8D9D9",
"=@	c #5E6365",
"-@	c #FEFAD6",
";@	c #FCE950",
">@	c #F79934",
",@	c #F57E36",
"'@	c #EF2A2A",
")@	c #FBCACA",
"!@	c #626668",
"~@	c #606465",
"{@	c #B9BBBC",
"]@	c #FDF08A",
"^@	c #FBC85B",
"/@	c #F36154",
"(@	c #F47171",
"_@	c #B9BBBB",
":@	c #616566",
"<@	c #353B3D",
"[@	c #464B4D",
"}@	c #FFFCEB",
"|@	c #FCEA56",
"1@	c #FCE752",
"2@	c #F68A1D",
"3@	c #F57E1F",
"4@	c #F03131",
"5@	c #EF3030",
"6@	c #FDE4E4",
"7@	c #484D4F",
"8@	c #FDF4A5",
"9@	c #F9B754",
"0@	c #F57155",
"a@	c #F79292",
"b@	c #999B9C",
"c@	c #6E7375",
"d@	c #44494B",
"e@	c #FFFEF8",
"f@	c #FCEC64",
"g@	c #FBDF58",
"h@	c #F57F0B",
"i@	c #F47B0C",
"j@	c #F1403E",
"k@	c #F14040",
"l@	c #FEF6F6",
"m@	c #373D3F",
"n@	c #787C7C",
"o@	c #FEF7BF",
"p@	c #F9A645",
"q@	c #F57B4A",
"r@	c #F9B3B3",
"s@	c #797C7E",
"t@	c #777D7D",
"u@	c #525659",
"v@	c #D0D2D2",
"w@	c #FDEE78",
"x@	c #FBD45C",
"y@	c #F57A01",
"z@	c #F3534D",
"A@	c #F35959",
"B@	c #FFFEFE",
"C@	c #535759",
"D@	c #575C5D",
"E@	c #FEFBDC",
"F@	c #FCE850",
"G@	c #F7942E",
"H@	c #F67E30",
"I@	c #EF2B2B",
"J@	c #FCD2D2",
"K@	c #FDF191",
"L@	c #FAC45A",
"M@	c #F46656",
"N@	c #F57A7A",
"O@	c #B0B3B3",
"P@	c #636769",
"Q@	c #FFFDEF",
"R@	c #FCEA59",
"S@	c #FCE553",
"T@	c #F68718",
"U@	c #F67D19",
"V@	c #F03534",
"W@	c #F03333",
"X@	c #FDE9E9",
"Y@	c #FEF5AB",
"Z@	c #FAB351",
"`@	c #F47453",
" #	c #F79A9A",
".#	c #909495",
"+#	c #727576",
"@#	c #33393B",
"##	c #E1E2E2",
"$#	c #FFFEFB",
"%#	c #FCEC69",
"&#	c #FBDD58",
"*#	c #F57D08",
"=#	c #F57A07",
"-#	c #F14543",
";#	c #F14646",
">#	c #FEF8F8",
",#	c #E3E4E4",
"'#	c #464B4E",
")#	c #7A7E7E",
"!#	c #FEF8C7",
"~#	c #F8A13F",
"{#	c #F57D44",
"]#	c #FABCBC",
"^#	c #707475",
"/#	c #C6C7C8",
"(#	c #FDEF7F",
"_#	c #FBD05D",
":#	c #F25A51",
"<#	c #F36060",
"[#	c #C9CACB",
"}#	c #505557",
"|#	c #FFFBE2",
"1#	c #FCE854",
"2#	c #F79028",
"3#	c #F57E2A",
"4#	c #FCD8D8",
"5#	c #6A6E70",
"6#	c #A8ABAB",
"7#	c #FCDFA7",
"8#	c #F8A655",
"9#	c #F9B6A2",
"0#	c #A7AAAB",
"a#	c #6B6E70",
"b#	c #7A7D7E",
"c#	c #888C8D",
"d#	c #878B8C",
"e#	c #4C5254",
"f#	c #4B5051",
"                                                                                                                                ",
"                                                                                                                                ",
"                                                                                                                                ",
"                                                                                                                                ",
"                                . . . . . . . . . . . . . . . . . . . . . . . . . . . . . . . .                                 ",
"                              + @ @ @ @ @ @ @ @ @ @ @ @ @ @ @ @ @ @ @ @ @ @ @ @ @ @ @ @ @ @ @ @ #                               ",
"                              @ @ $ % % % % % % % % % % % % % % % % % % % % % % % % % % % % $ @ @                               ",
"                            & @ * = - - - - - - - - - - - - - - - - - - - - - - - - - - - - ; > @ ,                             ",
"                          ' @ @ ) - - - - - - - - - - - - - - - - - - - - - - - - - - - - - - ! @ @ ~                           ",
"                          $ @ $ { - - - - - - - - - - - - - - - - - - - - - - - - - - - - - - ] ^ @ /                           ",
"                        ( @ @ _ - - - : < < < < < < < < < < < < < < < < < < < < < < < < [ - - - } @ @ |                         ",
"                        * @ 1 2 - - 3 4 5 6 6 6 6 6 6 6 6 6 6 6 6 6 6 6 6 6 6 6 6 6 6 7 8 9 - - 0 a @ b                         ",
"                      c @ @ d - - - e f g 6 6 6 6 6 6 6 6 6 6 6 6 6 6 6 6 6 6 6 6 6 6 h i j - - - k @ @ l                       ",
"                    m @ @ n - - - o f f f p 6 6 6 6 6 6 6 6 6 6 6 6 6 6 6 6 6 6 6 6 q i i i r - - - s @ @ t                     ",
"                    u @ v w - - x y f f f z A 6 6 6 6 6 6 6 6 6 6 6 6 6 6 6 6 6 6 B C i i i D E - - F G @ H                     ",
"                  I @ @ J - - - K f f f f f L 6 6 6 6 6 6 6 6 6 6 6 6 6 6 6 6 6 6 M i i i i i N - - - O @ @ P                   ",
"                  Q @ R S - - T U f f f f f V W 6 6 6 6 6 6 6 6 6 6 6 6 6 6 6 6 X Y i i i i i Z ` - -  ...@ +.                  ",
"                @.@ @ #.- - - $.f f f f f f f %.6 6 6 6 6 6 6 6 6 6 6 6 6 6 6 6 &.i i i i i i i *.- - - =.@ @ -.                ",
"                ;.@ . >.- - ,.'.f f f f f f f ).!.6 6 6 6 6 6 6 6 6 6 6 6 6 6 ~.{.i i i i i i i ].^.- - >.. @ ;.                ",
"              /.@ ;.(.- - _.:.f f f f f f f f f <.[.6 6 6 6 6 6 6 6 6 6 6 6 [.}.i i i i i i i i i |.>.- - 1.;.@ 2.              ",
"            3.@ @ 4.- - - 5.f f f f f f f f f f f 6.6 6 6 6 6 6 6 6 6 6 6 6 7.i i i i i i i i i i i 8.- - - ~ @ @ 9.            ",
"            0.@ a.b.- - c.d.f f f f f f f f f f f e.f.6 6 6 6 6 6 6 6 6 6 g.h.i i i i i i i i i i i i.j.- - k.l.@ R             ",
"          m.@ @ n.- - - o.f f f f f f f f f f f f f p.6 6 6 6 6 6 6 6 6 6 q.i i i i i i i i i i i i i r.- - - s.@ @ t.          ",
"          a.@ u.v.- - w.x.f f f f f f f f f f f f f y.z.6 6 6 6 6 6 6 6 A.B.i i i i i i i i i i i i i C.D.- - E.F.@ G           ",
"        G.@ @ H.- - - I.f f f f f f f f f f f f f f f J.6 6 6 6 6 6 6 6 K.i i i i i i i i i i i i i i i L.- - - M.@ @ N.        ",
"        ;.@ G.>.- - O.P.f f f f f f f f f f f f f f f f Q.6 6 6 6 6 6 R.S.i i i i i i i i i i i i i i i i T.- - - @.@ @         ",
"      U.@ b V.- - W.X.f f f f f f f f f f f f f f f f f Y.Z.6 6 6 6 `. +i i i i i i i i i i i i i i i i i .+0 - - ++* @ @+      ",
"    #+@ @ $+- - - %+f f f f f f f f f f f f f f f f f f f &+6 6 6 6 *+i i i i i i i i i i i i i i i i i i i =+- - - -+@ @ #+    ",
"    ;+@ >+,+- - '+)+f f f f f f f f f f f f f f f f f f f !+~+6 6 {+]+i i i i i i i i i i i i i i i i i i i ^+/+- - (+$ @ >+    ",
"  _+@ @ :+- - - <+f f f f f f f f f f f f f f f f f f f f f [+6 6 }+i i i i i i i i i i i i i i i i i i i i i |+- - - 1+@ @ 2+  ",
"  > @ 3+4+- - 5+6+f f f f f f f f f f f f f f f f f f f f f 7+8+9+0+i i i i i i i i i i i i i i i i i i i i i a+b+- - 2 1 @ *   ",
"c+@ @ d+- - - e+f f f f f f f f f f f f f f f f f f f f f f f f+g+i i i i i i i i i i i i i i i i i i i i i i i h+- - - d @ @ c ",
"i+@ @ j+- - - k+l+l+l+l+l+l+l+l+l+l+l+l+l+l+l+l+l+l+l+l+l+l+l+m+n+o+o+o+o+o+o+o+o+o+o+o+o+o+o+o+o+o+o+o+o+o+o+o+p+- - - q+@ @ r+",
"  v @ , s+- - t+u+l+l+l+l+l+l+l+l+l+l+l+l+l+l+l+l+l+l+l+l+l+v+w+x+y+o+o+o+o+o+o+o+o+o+o+o+o+o+o+o+o+o+o+o+o+o+z+A+- - 4+B+@ >   ",
"  2+@ @ 1+- - - C+l+l+l+l+l+l+l+l+l+l+l+l+l+l+l+l+l+l+l+l+l+D+E+E+F+o+o+o+o+o+o+o+o+o+o+o+o+o+o+o+o+o+o+o+o+o+G+- - - H+@ @ I+  ",
"    R @ J+K+- - L+M+l+l+l+l+l+l+l+l+l+l+l+l+l+l+l+l+l+l+l+N+O+E+E+P+Q+o+o+o+o+o+o+o+o+o+o+o+o+o+o+o+o+o+o+o+R+S+- - ,+>+@ ;+    ",
"    #+@ @ -+- - - T+l+l+l+l+l+l+l+l+l+l+l+l+l+l+l+l+l+l+l+U+E+E+E+E+V+o+o+o+o+o+o+o+o+o+o+o+o+o+o+o+o+o+o+o+W+- - - X+@ @ Y+    ",
"      Z+@ b `+- -  @.@l+l+l+l+l+l+l+l+l+l+l+l+l+l+l+l+l++@@@E+E+E+E+#@$@o+o+o+o+o+o+o+o+o+o+o+o+o+o+o+o+o+%@&@- - *@b @ B+      ",
"        ;.@ =@>.- - -@;@l+l+l+l+l+l+l+l+l+l+l+l+l+l+l+l+>@E+E+E+E+E+E+,@'@o+o+o+o+o+o+o+o+o+o+o+o+o+o+o+o+)@- - - !@@ @         ",
"        ~@@ @ {@- - - ]@l+l+l+l+l+l+l+l+l+l+l+l+l+l+l+^@E+E+E+E+E+E+E+E+/@o+o+o+o+o+o+o+o+o+o+o+o+o+o+o+(@- - - _@@ @ :@        ",
"          <@@ [@v.- - }@|@l+l+l+l+l+l+l+l+l+l+l+l+l+1@2@E+E+E+E+E+E+E+E+3@4@o+o+o+o+o+o+o+o+o+o+o+o+o+5@6@- - E.7@@ G           ",
"          m.@ @ s.- - - 8@l+l+l+l+l+l+l+l+l+l+l+l+l+9@E+E+E+E+E+E+E+E+E+E+0@o+o+o+o+o+o+o+o+o+o+o+o+o+a@- - - b@@ @ c@          ",
"            d@@ a.b.- - e@f@l+l+l+l+l+l+l+l+l+l+l+g@h@E+E+E+E+E+E+E+E+E+E+i@j@o+o+o+o+o+o+o+o+o+o+o+k@l@- - k.m@@ R             ",
"            n@@ @ ~ - - - o@l+l+l+l+l+l+l+l+l+l+l+p@E+E+E+E+E+E+E+E+E+E+E+E+q@o+o+o+o+o+o+o+o+o+o+o+r@- - - s@@ @ t@            ",
"              u@@ ;.v@- -  @w@l+l+l+l+l+l+l+l+l+x@y@E+E+E+E+E+E+E+E+E+E+E+E+y@z@o+o+o+o+o+o+o+o+o+A@B@- - v@;.@ C@              ",
"                b @ D@0 - - E@;@l+l+l+l+l+l+l+F@G@E+E+E+E+E+E+E+E+E+E+E+E+E+E+H@I@o+o+o+o+o+o+o+'@J@- - 0 . @ ;.                ",
"                -.@ @ =.- - - K@l+l+l+l+l+l+l+L@E+E+E+E+E+E+E+E+E+E+E+E+E+E+E+E+M@o+o+o+o+o+o+o+N@- - - O@@ @ P@                ",
"                  Q @ R S - - Q@R@l+l+l+l+l+S@T@E+E+E+E+E+E+E+E+E+E+E+E+E+E+E+E+U@V@o+o+o+o+o+W@X@- -  ...@ +.                  ",
"                  s @ @ O - - - Y@l+l+l+l+l+Z@E+E+E+E+E+E+E+E+E+E+E+E+E+E+E+E+E+E+`@o+o+o+o+o+ #- - - .#@ @ +#                  ",
"                    7@@ @###- - $#%#l+l+l+&#*#E+E+E+E+E+E+E+E+E+E+E+E+E+E+E+E+E+E+=#-#o+o+o+;#>#- - ,#G @ '#                    ",
"                    )#@ @ I - - - !#l+l+l+~#E+E+E+E+E+E+E+E+E+E+E+E+E+E+E+E+E+E+E+E+{#o+o+o+]#- - - ^#@ @ m                     ",
"                      . @ @ /#- - - (#l+_#E+E+E+E+E+E+E+E+E+E+E+E+E+E+E+E+E+E+E+E+E+E+:#o+<#- - - [#@ @ l                       ",
"                        * @ }#2 - - |#1#2#E+E+E+E+E+E+E+E+E+E+E+E+E+E+E+E+E+E+E+E+E+E+3#5@4#- - 0 a @ b                         ",
"                        5#@ @ 6#- - - 7#8#8#8#8#8#8#8#8#8#8#8#8#8#8#8#8#8#8#8#8#8#8#8#8#9#- - - 0#@ @ a#                        ",
"                          $ @ $ { - - - - - - - - - - - - - - - - - - - - - - - - - - - - - - ] ^ @ /                           ",
"                          b#@ @ c#- - - - - - - - - - - - - - - - - - - - - - - - - - - - - - d#@ @ #+                          ",
"                            e#@ * = - - - - - - - - - - - - - - - - - - - - - - - - - - - - ; > @ f#                            ",
"                              @ @ $ % % % % % % % % % % % % % % % % % % % % % % % % % % % % $ @ @                               ",
"                              # @ @ @ @ @ @ @ @ @ @ @ @ @ @ @ @ @ @ @ @ @ @ @ @ @ @ @ @ @ @ @ @ ~@                              ",
"                                . . . . . . . . . . . . . . . . . . . . . . . . . . . . . . . .                                 ",
"                                                                                                                                ",
"                                                                                                                                ",
"                                                                                                                                ",
"                                                                                                                                "};
