<?xml version="1.0" encoding="utf-8"?>
<!-- Created by sK1 2.0rc5 (https://sk1project.net/) -->
<svg xmlns="http://www.w3.org/2000/svg" height="64.0pt" viewBox="0 0 64.0 64.0" width="64.0pt" version="1.1" xmlns:xlink="http://www.w3.org/1999/xlink" id="9cd94bb0-0d80-11ea-99cd-a0d37a65aa0e">

<g>
	<path style="fill-rule:evenodd;fill:#ffffff;" d="M 0.0006,31.9978 L 8.0005,45.854 16.0004,59.7102 32.0001,59.7102 47.9999,59.7102 55.9998,45.854 63.9996,31.9978 55.9998,18.1416 47.9999,4.2854 32.0001,4.2854 16.0004,4.2854 8.0005,18.1416 0.0006,31.9978 Z" />
	<path style="fill-rule:evenodd;fill:#2e3436;" d="M 3.0006,31.9979 L 10.2504,44.5551 17.5003,57.1123 32.0001,57.1123 46.4999,57.1123 53.7498,44.5551 60.9997,31.9979 53.7498,19.4407 46.4999,6.8835 32.0001,6.8835 17.5003,6.8835 10.2504,19.4407 3.0006,31.9979 Z M 0.0006,31.9978 L 8.0005,45.854 16.0004,59.7102 32.0001,59.7102 47.9999,59.7102 55.9998,45.854 63.9996,31.9978 55.9998,18.1416 47.9999,4.2854 32.0001,4.2854 16.0004,4.2854 8.0005,18.1416 0.0006,31.9978 Z" />
	<path style="fill-rule:evenodd;fill:#73d216;" d="M 19.4994,10.3481 L 7.0,31.9984 31.9994,31.9988 19.4994,10.3481 Z" />
	<path style="fill-rule:evenodd;fill:#fce94f;" d="M 6.9995,31.9995 L 19.4995,53.6494 31.9995,31.9995 6.9995,31.9995 Z" />
	<path style="fill-rule:evenodd;fill:#f57900;" d="M 19.5003,53.6494 L 44.4997,53.649 32.0003,31.9987 19.5003,53.6494 Z" />
	<path style="fill-rule:evenodd;fill:#ef2929;" d="M 44.4999,53.6492 L 56.9993,31.999 31.9999,31.9986 44.4999,53.6492 Z" />
	<path style="fill-rule:evenodd;fill:#755076;" d="M 56.9996,31.9989 L 44.4996,10.349 31.9996,31.9989 56.9996,31.9989 Z" />
	<path style="fill-rule:evenodd;fill:#3465a4;" d="M 44.5002,10.3489 L 19.5008,10.3493 32.0002,31.9996 44.5002,10.3489 Z" />
</g>
</svg>